<svg width="49" height="16" viewBox="0 0 49 16" fill="none" xmlns="http://www.w3.org/2000/svg">
<path d="M7.64625 15.18V10.012H7.50375C7.20608 10.3793 6.82925 10.6675 6.37325 10.8765C5.92358 11.0855 5.40425 11.19 4.81525 11.19C4.08691 11.19 3.41558 11.0127 2.80125 10.658C2.19325 10.297 1.70241 9.73967 1.32875 8.986C0.961413 8.226 0.777746 7.24433 0.777746 6.041C0.777746 4.20433 1.26541 2.81417 2.24075 1.8705C3.21608 0.9205 4.69175 0.445499 6.66775 0.445499C7.11741 0.445499 7.57658 0.467666 8.04525 0.511999C8.52025 0.556333 8.98258 0.622833 9.43225 0.711499C9.88191 0.793833 10.2967 0.898333 10.6767 1.025V15.18H7.64625ZM5.96475 8.7105C6.26875 8.7105 6.56958 8.65983 6.86725 8.5585C7.16491 8.45717 7.42458 8.29883 7.64625 8.0835V2.868C7.48158 2.83 7.29158 2.79833 7.07625 2.773C6.86725 2.74767 6.64241 2.735 6.40175 2.735C5.57208 2.735 4.93558 2.96933 4.49225 3.438C4.04891 3.90033 3.82725 4.68567 3.82725 5.794C3.82725 6.554 3.91591 7.14617 4.09325 7.5705C4.27058 7.9885 4.52075 8.283 4.84375 8.454C5.16675 8.625 5.54041 8.7105 5.96475 8.7105ZM16.0582 11.1805C15.3679 11.1805 14.7535 11.0475 14.2152 10.7815C13.6769 10.5092 13.2525 10.0753 12.9422 9.48C12.6319 8.88467 12.4767 8.09617 12.4767 7.1145V0.606999H15.5072V6.9055C15.5072 7.5325 15.637 7.96633 15.8967 8.207C16.1627 8.44767 16.5079 8.568 16.9322 8.568C17.1412 8.568 17.3597 8.5395 17.5877 8.4825C17.822 8.41917 18.0437 8.32417 18.2527 8.1975C18.4617 8.07083 18.6454 7.9125 18.8037 7.7225V0.606999H21.8247V11H19.3357L19.1267 9.955H18.9937C18.601 10.354 18.1545 10.658 17.6542 10.867C17.1539 11.076 16.6219 11.1805 16.0582 11.1805ZM28.9392 11.1995C27.6345 11.1995 26.561 11.0127 25.7187 10.639C24.8763 10.2653 24.2493 9.6795 23.8377 8.8815C23.4323 8.0835 23.2297 7.05433 23.2297 5.794C23.2297 4.64767 23.4165 3.6755 23.7902 2.8775C24.1702 2.0795 24.718 1.47467 25.4337 1.063C26.1557 0.651333 27.0297 0.445499 28.0557 0.445499C29.0373 0.445499 29.8638 0.654499 30.5352 1.0725C31.2065 1.48417 31.7132 2.09533 32.0552 2.906C32.3972 3.71667 32.5682 4.711 32.5682 5.889V6.6775H24.9587V4.939H30.2312L29.7467 5.1195C29.7467 4.4355 29.6833 3.89083 29.5567 3.4855C29.43 3.08017 29.2368 2.792 28.9772 2.621C28.7238 2.45 28.4072 2.3645 28.0272 2.3645C27.6408 2.3645 27.3147 2.45 27.0487 2.621C26.789 2.792 26.5895 3.08017 26.4502 3.4855C26.3172 3.8845 26.2507 4.426 26.2507 5.11V6.326C26.2507 6.96567 26.3425 7.4755 26.5262 7.8555C26.7162 8.22917 27.036 8.49833 27.4857 8.663C27.9417 8.82767 28.5687 8.91 29.3667 8.91C29.772 8.91 30.1963 8.8815 30.6397 8.8245C31.0893 8.76117 31.539 8.67883 31.9887 8.5775V10.848C31.4377 10.9747 30.912 11.0633 30.4117 11.114C29.9177 11.171 29.4268 11.1995 28.9392 11.1995ZM33.8637 11V0.606999H36.3622L36.5617 1.671H36.7042C37.0716 1.26567 37.4991 0.961666 37.9867 0.758999C38.4807 0.549999 39.0254 0.445499 39.6207 0.445499C40.2351 0.445499 40.7861 0.5785 41.2737 0.8445C41.7677 1.10417 42.1541 1.5285 42.4327 2.1175C42.7177 2.70017 42.8602 3.47283 42.8602 4.4355V11H39.8962V4.692C39.8962 4.07133 39.7791 3.64383 39.5447 3.4095C39.3167 3.16883 39.0001 3.0485 38.5947 3.0485C38.3921 3.0485 38.1831 3.08017 37.9677 3.1435C37.7587 3.20683 37.5592 3.30183 37.3692 3.4285C37.1856 3.55517 37.0241 3.71667 36.8847 3.913V11H33.8637ZM45.8052 11V4.692C45.8052 4.07133 45.6786 3.64383 45.4252 3.4095C45.1719 3.16883 44.8457 3.0485 44.4467 3.0485C44.2251 3.0485 44.0034 3.08333 43.7817 3.153C43.5664 3.21633 43.3606 3.31767 43.1642 3.457C42.9679 3.59633 42.7969 3.77683 42.6512 3.9985L42.0527 2.032C42.5151 1.46833 43.0376 1.063 43.6202 0.816C44.2029 0.569 44.7887 0.445499 45.3777 0.445499C46.0427 0.445499 46.6349 0.5785 47.1542 0.8445C47.6736 1.1105 48.0821 1.54433 48.3797 2.146C48.6774 2.74767 48.8262 3.5425 48.8262 4.5305V11H45.8052Z" fill="#323333"/>
</svg>
