<svg width="68" height="17" viewBox="0 0 68 17" fill="none" xmlns="http://www.w3.org/2000/svg">
<path d="M0.502494 16V5.607H2.98199L3.20999 6.9465H3.36199C3.65333 6.4335 4.03966 6.05983 4.52099 5.8255C5.00233 5.58483 5.53116 5.4645 6.10749 5.4645C6.26583 5.4645 6.41783 5.47083 6.56349 5.4835C6.70916 5.49617 6.83899 5.51517 6.95299 5.5405V8.2765C6.79466 8.24483 6.62366 8.22583 6.43999 8.2195C6.26266 8.20683 6.09166 8.2005 5.92699 8.2005C5.62933 8.2005 5.32849 8.2385 5.02449 8.3145C4.72049 8.38417 4.43866 8.495 4.17899 8.647C3.91933 8.79267 3.70083 8.97317 3.52349 9.1885V16H0.502494ZM12.9644 16.1995C11.6597 16.1995 10.5862 16.0127 9.74392 15.639C8.90158 15.2653 8.27458 14.6795 7.86291 13.8815C7.45758 13.0835 7.25491 12.0543 7.25491 10.794C7.25491 9.64767 7.44175 8.6755 7.81541 7.8775C8.19541 7.0795 8.74325 6.47467 9.45892 6.063C10.1809 5.65133 11.0549 5.4455 12.0809 5.4455C13.0626 5.4455 13.8891 5.6545 14.5604 6.0725C15.2317 6.48417 15.7384 7.09533 16.0804 7.906C16.4224 8.71667 16.5934 9.711 16.5934 10.889V11.6775H8.98391V9.939H14.2564L13.7719 10.1195C13.7719 9.4355 13.7086 8.89083 13.5819 8.4855C13.4552 8.08017 13.2621 7.792 13.0024 7.621C12.7491 7.45 12.4324 7.3645 12.0524 7.3645C11.6661 7.3645 11.3399 7.45 11.0739 7.621C10.8142 7.792 10.6147 8.08017 10.4754 8.4855C10.3424 8.8845 10.2759 9.426 10.2759 10.11V11.326C10.2759 11.9657 10.3677 12.4755 10.5514 12.8555C10.7414 13.2292 11.0612 13.4983 11.5109 13.663C11.9669 13.8277 12.5939 13.91 13.3919 13.91C13.7972 13.91 14.2216 13.8815 14.6649 13.8245C15.1146 13.7612 15.5642 13.6788 16.0139 13.5775V15.848C15.4629 15.9747 14.9372 16.0633 14.4369 16.114C13.9429 16.171 13.4521 16.1995 12.9644 16.1995ZM22.81 16.1995C21.651 16.1995 20.6693 16.0032 19.865 15.6105C19.067 15.2178 18.459 14.6257 18.041 13.834C17.623 13.036 17.414 12.0322 17.414 10.8225C17.414 9.60017 17.6356 8.59317 18.079 7.8015C18.5286 7.0035 19.1778 6.41133 20.0265 6.025C20.8815 5.63867 21.9138 5.4455 23.1235 5.4455C23.5415 5.4455 23.9436 5.4645 24.33 5.5025C24.7226 5.5405 25.0931 5.60067 25.4415 5.683V8.077C25.1121 8.01367 24.7923 7.96617 24.482 7.9345C24.1716 7.90283 23.8581 7.887 23.5415 7.887C22.8448 7.887 22.2748 7.98517 21.8315 8.1815C21.3881 8.37783 21.062 8.69133 20.853 9.122C20.644 9.54633 20.5395 10.1037 20.5395 10.794C20.5395 11.5097 20.6408 12.086 20.8435 12.523C21.0525 12.9537 21.3596 13.2672 21.765 13.4635C22.1703 13.6598 22.677 13.758 23.285 13.758C23.6143 13.758 23.9468 13.7295 24.2825 13.6725C24.6181 13.6155 25.0045 13.5268 25.4415 13.4065V15.8005C25.0615 15.9272 24.6466 16.0253 24.197 16.095C23.7473 16.1647 23.285 16.1995 22.81 16.1995ZM31.7611 16.1995C30.4564 16.1995 29.3829 16.0127 28.5406 15.639C27.6982 15.2653 27.0712 14.6795 26.6596 13.8815C26.2542 13.0835 26.0516 12.0543 26.0516 10.794C26.0516 9.64767 26.2384 8.6755 26.6121 7.8775C26.9921 7.0795 27.5399 6.47467 28.2556 6.063C28.9776 5.65133 29.8516 5.4455 30.8776 5.4455C31.8592 5.4455 32.6857 5.6545 33.3571 6.0725C34.0284 6.48417 34.5351 7.09533 34.8771 7.906C35.2191 8.71667 35.3901 9.711 35.3901 10.889V11.6775H27.7806V9.939H33.0531L32.5686 10.1195C32.5686 9.4355 32.5052 8.89083 32.3786 8.4855C32.2519 8.08017 32.0587 7.792 31.7991 7.621C31.5457 7.45 31.2291 7.3645 30.8491 7.3645C30.4627 7.3645 30.1366 7.45 29.8706 7.621C29.6109 7.792 29.4114 8.08017 29.2721 8.4855C29.1391 8.8845 29.0726 9.426 29.0726 10.11V11.326C29.0726 11.9657 29.1644 12.4755 29.3481 12.8555C29.5381 13.2292 29.8579 13.4983 30.3076 13.663C30.7636 13.8277 31.3906 13.91 32.1886 13.91C32.5939 13.91 33.0182 13.8815 33.4616 13.8245C33.9112 13.7612 34.3609 13.6788 34.8106 13.5775V15.848C34.2596 15.9747 33.7339 16.0633 33.2336 16.114C32.7396 16.171 32.2487 16.1995 31.7611 16.1995ZM36.6856 16V5.607H39.7161V16H36.6856ZM38.1961 4.0965C37.5628 4.0965 37.091 3.95717 36.7806 3.6785C36.4766 3.39983 36.3246 3.0135 36.3246 2.5195C36.3246 2.01283 36.4766 1.62333 36.7806 1.351C37.091 1.07233 37.5628 0.932999 38.1961 0.932999C38.8358 0.932999 39.3076 1.07233 39.6116 1.351C39.9156 1.62333 40.0676 2.01283 40.0676 2.5195C40.0676 3.0135 39.9156 3.39983 39.6116 3.6785C39.3076 3.95717 38.8358 4.0965 38.1961 4.0965ZM46.2202 16.19C44.9662 16.19 44.0004 15.8797 43.3227 15.259C42.6514 14.632 42.3157 13.6408 42.3157 12.2855V5.607L42.8667 1.94H45.3367V11.8105C45.3367 12.5262 45.4697 13.0202 45.7357 13.2925C46.008 13.5648 46.445 13.701 47.0467 13.701C47.2114 13.701 47.3792 13.6915 47.5502 13.6725C47.7275 13.6472 47.9239 13.6155 48.1392 13.5775V15.9715C47.8669 16.0285 47.5597 16.0792 47.2177 16.1235C46.882 16.1678 46.5495 16.19 46.2202 16.19ZM40.6247 7.9915V5.607H48.0727V7.9915H40.6247ZM52.0698 16.19C51.0058 16.19 50.1762 15.9145 49.5808 15.3635C48.9918 14.8062 48.6973 14.081 48.6973 13.188C48.6973 12.2063 49.0362 11.44 49.7138 10.889C50.3978 10.338 51.4998 10.0118 53.0198 9.9105L55.2048 9.73L55.5278 11.402L53.3238 11.5825C52.7412 11.6268 52.32 11.7598 52.0603 11.9815C51.807 12.2032 51.6803 12.5072 51.6803 12.8935C51.6803 13.2735 51.7975 13.568 52.0318 13.777C52.2662 13.9797 52.6082 14.081 53.0578 14.081C53.3365 14.081 53.6215 14.0335 53.9128 13.9385C54.2042 13.8372 54.4702 13.6662 54.7108 13.4255V9.6255C54.7108 9.1505 54.6317 8.77683 54.4733 8.5045C54.3213 8.23217 54.0712 8.039 53.7228 7.925C53.3808 7.80467 52.9217 7.7445 52.3453 7.7445C51.9463 7.7445 51.4935 7.77933 50.9868 7.849C50.4802 7.91233 49.9957 8.01683 49.5333 8.1625V5.8825C50.04 5.73683 50.5942 5.62917 51.1958 5.5595C51.8038 5.4835 52.3675 5.4455 52.8868 5.4455C53.9888 5.4455 54.8913 5.58167 55.5943 5.854C56.3037 6.12633 56.8262 6.58233 57.1618 7.222C57.4975 7.85533 57.6653 8.71983 57.6653 9.8155V16H55.1763L54.9673 14.9645H54.8248C54.5145 15.3888 54.1187 15.6992 53.6373 15.8955C53.156 16.0918 52.6335 16.19 52.0698 16.19ZM62.5121 16.1995C61.9168 16.1995 61.3373 16.1615 60.7736 16.0855C60.2163 16.0095 59.6906 15.8955 59.1966 15.7435V13.5205C59.6969 13.6725 60.2258 13.7897 60.7831 13.872C61.3404 13.948 61.9041 13.986 62.4741 13.986C63.1581 13.986 63.6394 13.8973 63.9181 13.72C64.2031 13.5363 64.3456 13.283 64.3456 12.96C64.3456 12.7003 64.2759 12.504 64.1366 12.371C63.9973 12.238 63.7534 12.1367 63.4051 12.067L61.7141 11.763C60.7388 11.5793 60.0294 11.2405 59.5861 10.7465C59.1428 10.2525 58.9211 9.59067 58.9211 8.761C58.9211 7.76667 59.3201 6.9655 60.1181 6.3575C60.9224 5.7495 62.1543 5.4455 63.8136 5.4455C64.3203 5.4455 64.8111 5.474 65.2861 5.531C65.7674 5.588 66.2013 5.66717 66.5876 5.7685V7.9915C66.1823 7.8775 65.7516 7.792 65.2956 7.735C64.8396 7.678 64.3741 7.6495 63.8991 7.6495C63.3228 7.6495 62.8794 7.70017 62.5691 7.8015C62.2588 7.8965 62.0403 8.02317 61.9136 8.1815C61.7933 8.33983 61.7331 8.51083 61.7331 8.6945C61.7331 8.91617 61.8028 9.09667 61.9421 9.236C62.0814 9.37533 62.3221 9.483 62.6641 9.559L64.3551 9.863C65.2798 10.034 65.9764 10.3507 66.4451 10.813C66.9201 11.269 67.1576 11.9498 67.1576 12.8555C67.1576 13.8878 66.7523 14.7048 65.9416 15.3065C65.1373 15.9018 63.9941 16.1995 62.5121 16.1995Z" fill="#A81D83"/>
</svg>
